<svg width="80" height="70" viewBox="0 0 80 70" fill="none" xmlns="http://www.w3.org/2000/svg">
<path d="M3 34C4.10457 34 5 34.8954 5 36V55.1582C5.00003 55.7169 5.07731 56.2729 5.22949 56.8105L5.49316 57.7432C5.67254 58.3767 6.04957 58.9364 6.56836 59.3418C7.11366 59.7679 7.78549 59.9999 8.47754 60H9.71191C10.1583 60 10.595 59.868 10.9668 59.6211C11.4274 59.3151 11.7607 58.8516 11.9033 58.3174L13.0088 54.1729C13.0039 54.1158 13 54.0583 13 54C13 52.8954 13.8954 52 15 52C16.1046 52 17 52.8954 17 54C17 54.1004 16.9889 54.1985 16.9746 54.2949L18.0352 58.5273C18.1481 58.9781 18.4186 59.374 18.7979 59.6426C19.1264 59.8752 19.5193 59.9999 19.9219 60H20.877C21.5154 59.9999 22.1335 59.7758 22.624 59.3672C23.0585 59.0052 23.3704 58.5172 23.5156 57.9707L23.7939 56.9209C23.9305 56.4067 24 55.8767 24 55.3447V49.2314C23.3876 48.6822 23 47.8874 23 47C23 45.3431 24.3431 44 26 44C27.6569 44 29 45.3431 29 47C29 47.8874 28.6124 48.6822 28 49.2314V55.3447C28 56.2233 27.8856 57.0981 27.6602 57.9473L27.3818 58.9971C27.024 60.3445 26.2566 61.5479 25.1855 62.4404C23.9761 63.4482 22.4512 63.9999 20.877 64H19.9219C18.6911 63.9999 17.4908 63.6175 16.4863 62.9062C15.8504 62.4559 15.3148 61.8887 14.9033 61.2412C14.4491 61.9132 13.8663 62.4971 13.1797 62.9531C12.152 63.6356 10.9455 64 9.71191 64H8.47754C6.89297 63.9999 5.35407 63.4698 4.10547 62.4941C2.9176 61.5659 2.05524 60.2835 1.64453 58.833L1.38086 57.9004C1.12827 57.0082 1.00003 56.0854 1 55.1582V36C1 34.8954 1.89543 34 3 34ZM26 45.542C25.1947 45.542 24.542 46.1947 24.542 47C24.542 47.8053 25.1947 48.458 26 48.458C26.8053 48.458 27.458 47.8053 27.458 47C27.458 46.1947 26.8053 45.542 26 45.542ZM26 0C26.8874 0 27.6822 0.387596 28.2314 1H38.2754L39.2178 1.0127C41.4152 1.06993 43.6038 1.32672 45.7559 1.78125L47.2871 2.10449C49.483 2.56829 51.6058 3.32919 53.5967 4.36523L54.1826 4.66992C55.9734 5.6019 57.6154 6.79536 59.0547 8.21094L59.1855 8.33984C61.0968 10.2196 62.5996 12.4743 63.5986 14.9619C64.5245 17.2675 65 19.7294 65 22.2139V25.6504L64.9912 25.7451L64.8711 26.999C64.5587 30.2725 63.3825 33.4043 61.4629 36.0742C60.2485 37.7632 58.7591 39.2364 57.0566 40.4316L56.1182 41.0898C54.1283 42.4869 51.9478 43.5904 49.6436 44.3662L49.2129 44.5117C46.285 45.4974 43.2163 46 40.127 46H37.1592V45.9912C37.1066 45.9954 37.0536 46 37 46C35.8954 46 35 45.1046 35 44C35 42.8954 35.8954 42 37 42C37.0536 42 37.1066 42.0037 37.1592 42.0078V42H40.127C42.7823 42 45.42 41.5679 47.9365 40.7207L48.3672 40.5752C50.3077 39.9218 52.1445 38.993 53.8203 37.8164L54.7588 37.1582C56.0945 36.2204 57.2631 35.0644 58.2158 33.7393C59.7218 31.6446 60.6446 29.1874 60.8896 26.6191L61 25.457V22.2139C61 20.2399 60.6223 18.2839 59.8867 16.4521C59.093 14.4759 57.8992 12.6848 56.3809 11.1914L56.25 11.0625C55.0937 9.9253 53.7746 8.96646 52.3359 8.21777L51.75 7.91309C50.0811 7.04462 48.3017 6.40735 46.4609 6.01855L44.9287 5.69531C43.0144 5.29102 41.068 5.06163 39.1133 5.01074L38.2754 5H28.2314C27.6822 5.6124 26.8874 6 26 6C24.3431 6 23 4.65685 23 3C23 1.34315 24.3431 0 26 0ZM6.9043 0.704102C8.76783 0.163492 10.766 0.33725 12.5078 1.19238L12.5967 1.23633C13.9878 1.91936 15.1429 3.00458 15.9111 4.35059C16.5581 5.48431 16.9082 6.76319 16.9287 8.06836L17 12.623V41C17 42.1046 16.1046 43 15 43C13.8954 43 13 42.1046 13 41V12.6855L12.9287 8.13086C12.9188 7.49965 12.7494 6.88129 12.4365 6.33301C12.065 5.68205 11.5068 5.15748 10.834 4.82715L10.7451 4.7832C9.89771 4.36714 8.92521 4.28191 8.01855 4.54492C7.17048 4.79097 6.43448 5.32606 5.93848 6.05664L5.78516 6.28223C5.2734 7.036 5 7.92681 5 8.83789V21.7012H4.92676C5.58265 22.2515 6 23.0768 6 24C6 25.6569 4.65685 27 3 27C1.34315 27 0 25.6569 0 24C0 23.0768 0.417348 22.2515 1.07324 21.7012H1V8.83789C1 7.12575 1.51395 5.4527 2.47559 4.03613L2.62988 3.80957C3.64937 2.30804 5.16124 1.2098 6.9043 0.704102ZM40.9648 13.0117C42.1703 13.0661 43.3608 13.3099 44.4922 13.7354L45.2578 14.0234C46.6705 14.5548 47.9157 15.4537 48.8652 16.627C49.8066 17.7902 50.4245 19.1815 50.6543 20.6602L50.8555 21.9561C50.9519 22.5767 51 23.2039 51 23.832V24.4619L50.9951 24.7295C50.9734 25.3538 50.8764 25.9738 50.7051 26.5752L50.5977 26.9219C50.3277 27.724 49.9266 28.4771 49.4111 29.1504L49.0732 29.5928L48.8652 29.8555C47.8066 31.1517 46.4557 32.1809 44.9219 32.8584L44.6309 32.9873L44.3467 33.1084C42.9147 33.6968 41.3802 34 39.8301 34H28V13H40.4473L40.9648 13.0117ZM32 30H39.8301C40.9267 30 42.0115 29.7711 43.0146 29.3281L43.3057 29.2002C44.3269 28.7492 45.2179 28.0476 45.8965 27.1611L46.2354 26.7188C46.5189 26.3483 46.7306 25.9272 46.8584 25.4785C46.9525 25.1479 47 24.8057 47 24.4619V23.832C47 23.4096 46.9672 22.9878 46.9023 22.5703L46.7012 21.2744C46.5797 20.4931 46.2533 19.7582 45.7559 19.1436C45.2541 18.5235 44.5962 18.0484 43.8496 17.7676L43.085 17.4795C42.2419 17.1624 41.348 17 40.4473 17H32V30ZM3 22.542C2.19469 22.542 1.54199 23.1947 1.54199 24C1.54199 24.8053 2.19469 25.458 3 25.458C3.80531 25.458 4.45801 24.8053 4.45801 24C4.45801 23.1947 3.80531 22.542 3 22.542ZM26 1.54199C25.1947 1.54199 24.542 2.19469 24.542 3C24.542 3.80531 25.1947 4.45801 26 4.45801C26.8053 4.45801 27.458 3.80531 27.458 3C27.458 2.19469 26.8053 1.54199 26 1.54199Z" fill="url(#paint0_linear_1321_240)"/>
<path d="M42.592 54.544C42.5173 54.4267 42.448 54.2667 42.384 54.064C42.32 53.8613 42.288 53.648 42.288 53.424C42.288 53.008 42.3787 52.7093 42.56 52.528C42.752 52.3467 42.9973 52.256 43.296 52.256H50.272C50.3467 52.3733 50.416 52.5333 50.48 52.736C50.544 52.9387 50.576 53.152 50.576 53.376C50.576 53.792 50.48 54.0907 50.288 54.272C50.1067 54.4533 49.8667 54.544 49.568 54.544H47.792V61.936C47.6747 61.968 47.488 62 47.232 62.032C46.9867 62.064 46.7413 62.08 46.496 62.08C46.2507 62.08 46.032 62.0587 45.84 62.016C45.6587 61.984 45.504 61.92 45.376 61.824C45.248 61.728 45.152 61.5947 45.088 61.424C45.024 61.2533 44.992 61.0293 44.992 60.752V54.544H42.592ZM51.9306 53.792C51.9306 53.3333 52.064 52.9707 52.3306 52.704C52.5973 52.4373 52.96 52.304 53.4186 52.304H58.6986C58.7733 52.4213 58.8373 52.576 58.8906 52.768C58.9546 52.96 58.9866 53.1627 58.9866 53.376C58.9866 53.7813 58.896 54.0693 58.7146 54.24C58.544 54.4107 58.3146 54.496 58.0266 54.496H54.6506V55.984H58.2506C58.3253 56.1013 58.3893 56.256 58.4426 56.448C58.5066 56.6293 58.5386 56.8267 58.5386 57.04C58.5386 57.4453 58.4533 57.7333 58.2826 57.904C58.112 58.0747 57.8826 58.16 57.5946 58.16H54.6506V59.84H58.7626C58.8373 59.9573 58.9013 60.112 58.9546 60.304C59.0186 60.496 59.0506 60.6987 59.0506 60.912C59.0506 61.3173 58.96 61.6107 58.7786 61.792C58.608 61.9627 58.3786 62.048 58.0906 62.048H53.4186C52.96 62.048 52.5973 61.9147 52.3306 61.648C52.064 61.3813 51.9306 61.0187 51.9306 60.56V53.792ZM65.5465 54.256C64.7252 54.256 64.0958 54.5067 63.6585 55.008C63.2212 55.5093 63.0025 56.2187 63.0025 57.136C63.0025 58.064 63.2425 58.7787 63.7225 59.28C64.2132 59.7813 64.8692 60.032 65.6905 60.032C66.1278 60.032 66.4958 59.9733 66.7945 59.856C67.1038 59.7387 67.3972 59.6053 67.6745 59.456C67.8558 59.6053 67.9945 59.7867 68.0905 60C68.1972 60.2027 68.2505 60.4427 68.2505 60.72C68.2505 61.1573 68.0052 61.5307 67.5145 61.84C67.0345 62.1387 66.2985 62.288 65.3065 62.288C64.5918 62.288 63.9198 62.1867 63.2905 61.984C62.6612 61.7813 62.1118 61.472 61.6425 61.056C61.1732 60.6293 60.7998 60.096 60.5225 59.456C60.2558 58.8053 60.1225 58.032 60.1225 57.136C60.1225 56.304 60.2505 55.5733 60.5065 54.944C60.7732 54.304 61.1305 53.7653 61.5785 53.328C62.0372 52.8907 62.5705 52.56 63.1785 52.336C63.7865 52.112 64.4372 52 65.1305 52C66.1118 52 66.8692 52.16 67.4025 52.48C67.9465 52.8 68.2185 53.2107 68.2185 53.712C68.2185 53.9893 68.1492 54.2293 68.0105 54.432C67.8718 54.6347 67.7118 54.7947 67.5305 54.912C67.2532 54.7307 66.9545 54.576 66.6345 54.448C66.3252 54.32 65.9625 54.256 65.5465 54.256ZM78.4151 61.936C78.2978 61.968 78.1111 62 77.8551 62.032C77.6098 62.064 77.3645 62.08 77.1191 62.08C76.8738 62.08 76.6551 62.0587 76.4631 62.016C76.2818 61.984 76.1271 61.92 75.9991 61.824C75.8711 61.728 75.7751 61.5947 75.7111 61.424C75.6471 61.2533 75.6151 61.0293 75.6151 60.752V58.256H72.5431V61.936C72.4258 61.968 72.2391 62 71.9831 62.032C71.7378 62.064 71.4925 62.08 71.2471 62.08C71.0018 62.08 70.7831 62.0587 70.5911 62.016C70.4098 61.984 70.2551 61.92 70.1271 61.824C69.9991 61.728 69.9031 61.5947 69.8391 61.424C69.7751 61.2533 69.7431 61.0293 69.7431 60.752V52.304C69.8605 52.2827 70.0471 52.256 70.3031 52.224C70.5591 52.1813 70.8045 52.16 71.0391 52.16C71.2845 52.16 71.4978 52.1813 71.6791 52.224C71.8711 52.256 72.0311 52.32 72.1591 52.416C72.2871 52.512 72.3831 52.6453 72.4471 52.816C72.5111 52.9867 72.5431 53.2107 72.5431 53.488V56.048H75.6151V52.304C75.7325 52.2827 75.9191 52.256 76.1751 52.224C76.4311 52.1813 76.6765 52.16 76.9111 52.16C77.1565 52.16 77.3698 52.1813 77.5511 52.224C77.7431 52.256 77.9031 52.32 78.0311 52.416C78.1591 52.512 78.2551 52.6453 78.3191 52.816C78.3831 52.9867 78.4151 53.2107 78.4151 53.488V61.936Z" fill="#B8D5FF"/>
<defs>
<linearGradient id="paint0_linear_1321_240" x1="1.69472e-07" y1="16.5" x2="51" y2="25.5" gradientUnits="userSpaceOnUse">
<stop offset="0.20913" stop-color="#0074FA"/>
<stop offset="1" stop-color="#B8D5FF"/>
</linearGradient>
</defs>
</svg>
